<svg width="20" height="20" viewBox="0 0 20 20" fill="none" xmlns="http://www.w3.org/2000/svg">
<path d="M18.6001 5.97501C18.4992 5.58025 18.3435 5.20157 18.1376 4.85001C17.9397 4.4843 17.6868 4.15123 17.3876 3.86251C16.9538 3.43018 16.4401 3.0863 15.8751 2.85001C14.7378 2.38325 13.4624 2.38325 12.3251 2.85001C11.791 3.07606 11.3004 3.39329 10.8751 3.78751L10.8126 3.86251L10.0001 4.67501L9.18756 3.86251L9.12506 3.78751C8.69975 3.39329 8.2091 3.07606 7.67506 2.85001C6.53775 2.38325 5.26236 2.38325 4.12506 2.85001C3.56004 3.0863 3.04634 3.43018 2.61256 3.86251C2.01926 4.4398 1.59927 5.17153 1.40006 5.97501C1.29408 6.38304 1.24362 6.8035 1.25006 7.22501C1.25006 7.62126 1.30006 8.01626 1.40006 8.40001C1.50485 8.78757 1.65594 9.16109 1.85006 9.51251C2.0597 9.87377 2.31608 10.2058 2.61256 10.5L10.0001 17.8875L17.3876 10.5C17.6838 10.2088 17.9376 9.87501 18.1376 9.51251C18.5435 8.81889 18.7551 8.02869 18.7501 7.22501C18.7565 6.80349 18.7061 6.38303 18.6001 5.97501ZM17.3501 8.01251C17.2003 8.58366 16.9029 9.10532 16.4876 9.52501L9.97506 16.025L3.46256 9.52501C3.25034 9.31128 3.06558 9.07194 2.91256 8.81251C2.76857 8.55586 2.65529 8.28315 2.57506 8.00001C2.51101 7.71691 2.47748 7.42776 2.47506 7.13751C2.47675 6.83896 2.51028 6.54145 2.57506 6.25001C2.65293 5.96606 2.76633 5.69307 2.91256 5.43751C3.06256 5.17501 3.24756 4.93751 3.46256 4.72501C3.78368 4.40819 4.16093 4.15387 4.57506 3.97501C5.40957 3.64117 6.34054 3.64117 7.17506 3.97501C7.58756 4.14626 7.96006 4.39751 8.27506 4.71251L9.97506 6.42501L11.6751 4.71251C11.9898 4.39695 12.3636 4.14637 12.7751 3.97501C13.6096 3.64117 14.5405 3.64117 15.3751 3.97501C15.7888 4.15376 16.1663 4.40876 16.4876 4.72501C16.7051 4.93126 16.8876 5.17126 17.0251 5.43751C17.3146 5.94809 17.4654 6.52556 17.4626 7.11251C17.4796 7.41454 17.4543 7.71746 17.3876 8.01251H17.3501Z" fill="#313131"/>
</svg>
