<svg width="18" height="16" viewBox="0 0 18 16" fill="none" xmlns="http://www.w3.org/2000/svg">
<path d="M17.5996 3.97507C17.4987 3.58031 17.343 3.20163 17.1371 2.85007C16.9392 2.48436 16.6863 2.15129 16.3871 1.86257C15.9533 1.43024 15.4396 1.08636 14.8746 0.850072C13.7373 0.383309 12.4619 0.383309 11.3246 0.850072C10.7905 1.07612 10.2999 1.39335 9.87457 1.78757L9.81207 1.86257L8.99957 2.67507L8.18707 1.86257L8.12457 1.78757C7.69926 1.39335 7.20861 1.07612 6.67457 0.850072C5.53726 0.383309 4.26187 0.383309 3.12457 0.850072C2.55955 1.08636 2.04585 1.43024 1.61207 1.86257C1.01877 2.43986 0.598784 3.1716 0.39957 3.97507C0.293589 4.3831 0.243134 4.80356 0.24957 5.22507C0.24957 5.62132 0.29957 6.01632 0.39957 6.40007C0.504362 6.78763 0.65545 7.16115 0.84957 7.51257C1.05921 7.87383 1.31559 8.20586 1.61207 8.50007L8.99957 15.8876L16.3871 8.50007C16.6833 8.20882 16.9371 7.87507 17.1371 7.51257C17.5431 6.81895 17.7546 6.02876 17.7496 5.22507C17.7561 4.80355 17.7056 4.38309 17.5996 3.97507ZM16.3496 6.01257C16.1999 6.58372 15.9024 7.10538 15.4871 7.52507L8.97457 14.0251L2.46207 7.52507C2.24985 7.31134 2.06509 7.072 1.91207 6.81257C1.76808 6.55592 1.6548 6.28321 1.57457 6.00007C1.51052 5.71697 1.477 5.42782 1.47457 5.13757C1.47627 4.83903 1.50979 4.54151 1.57457 4.25007C1.65245 3.96612 1.76584 3.69313 1.91207 3.43757C2.06207 3.17507 2.24707 2.93757 2.46207 2.72507C2.78319 2.40825 3.16044 2.15393 3.57457 1.97507C4.40909 1.64123 5.34005 1.64123 6.17457 1.97507C6.58707 2.14632 6.95957 2.39757 7.27457 2.71257L8.97457 4.42507L10.6746 2.71257C10.9894 2.39701 11.3631 2.14643 11.7746 1.97507C12.6091 1.64123 13.5401 1.64123 14.3746 1.97507C14.7883 2.15382 15.1658 2.40882 15.4871 2.72507C15.7046 2.93132 15.8871 3.17132 16.0246 3.43757C16.3141 3.94815 16.4649 4.52562 16.4621 5.11257C16.4791 5.4146 16.4538 5.71752 16.3871 6.01257H16.3496Z" fill="white"/>
</svg>
